<svg version="1.1" id="Layer_1" xmlns="http://www.w3.org/2000/svg" xmlns:xlink="http://www.w3.org/1999/xlink" x="0px" y="0px"
	 width="100%" viewBox="0 0 480 368" enable-background="new 0 0 480 368" xml:space="preserve">
<path fill="#000000" opacity="1.000000" stroke="none" 
	d="
M299.000000,36.952583 
	C326.494812,36.951031 353.489624,36.948524 380.484436,36.948513 
	C389.195679,36.948509 389.194550,36.951504 389.194733,45.422634 
	C389.196014,102.411964 389.242859,159.401382 389.117523,216.390442 
	C389.107056,221.156815 390.281281,224.949661 393.301300,228.675552 
	C415.536926,256.108429 437.616486,283.667786 459.726990,311.201965 
	C460.749390,312.475159 461.598694,313.887390 462.536530,315.246338 
	C458.745270,317.427185 320.063507,317.776947 314.266754,315.344513 
	C323.890594,308.730316 329.431061,298.072144 343.665497,298.705536 
	C368.944183,299.830383 394.308472,299.033112 419.636932,299.039886 
	C421.576324,299.040405 423.515717,299.039948 426.831879,299.039948 
	C410.473724,278.504822 394.976318,259.050201 379.338409,239.419220 
	C373.839264,242.380890 369.943634,246.765625 365.619598,250.544128 
	C329.123199,282.435913 292.763184,314.483795 256.237549,346.341888 
	C247.816345,353.687012 250.131516,353.595917 241.989624,346.481354 
	C202.976639,312.390625 164.029770,278.224213 125.055389,244.089264 
	C123.312614,242.562897 121.530853,241.081055 119.099709,239.009720 
	C103.297234,258.780334 87.691704,278.304535 72.005867,297.929230 
	C74.214462,299.643890 76.279182,298.977814 78.163788,298.982086 
	C104.825218,299.042389 131.487335,299.117798 158.147873,298.954407 
	C162.961182,298.924927 166.848328,299.993256 170.207489,303.558624 
	C174.158646,307.752350 179.275101,310.755829 183.762665,316.270142 
	C133.840027,316.270142 84.978905,316.270142 35.842022,316.270142 
	C35.946365,313.365326 37.867184,311.881927 39.264870,310.137756 
	C61.350784,282.576599 83.407333,254.991684 105.596695,227.514038 
	C108.080040,224.438843 108.947227,221.307724 108.942001,217.455963 
	C108.863998,159.966888 108.887573,102.477692 108.890289,44.988514 
	C108.890663,37.054031 108.929924,36.987362 117.034447,36.984776 
	C177.522964,36.965485 238.011475,36.961426 299.000000,36.952583 
M371.012146,184.500031 
	C371.035065,143.689438 371.064117,102.878860 371.074921,62.068275 
	C371.076752,55.172096 371.040497,55.152504 364.100891,55.152756 
	C287.142181,55.155560 210.183441,55.198303 133.224899,55.090885 
	C128.522629,55.084324 126.849113,56.407974 126.863968,61.293560 
	C127.015480,111.099342 127.020393,160.905914 126.878174,210.711716 
	C126.864380,215.542984 128.394638,217.003036 133.170212,216.957657 
	C154.823242,216.751923 176.479370,216.876953 198.134384,216.877319 
	C253.604813,216.878220 309.075378,216.818893 364.545380,216.972641 
	C369.542480,216.986496 371.359344,215.593521 371.133148,210.481689 
	C370.765320,202.168930 371.018311,193.828705 371.012146,184.500031 
M264.500000,235.069473 
	C224.162323,235.069473 183.824661,235.069473 143.486984,235.069473 
	C143.341858,235.511902 143.196732,235.954330 143.051590,236.396759 
	C144.169357,237.355133 145.297058,238.302185 146.403412,239.273544 
	C168.045090,258.274658 189.710175,277.249298 211.288467,296.322113 
	C213.754898,298.502136 216.394943,299.088776 219.512543,299.078339 
	C238.327850,299.015198 257.146332,298.861053 275.957123,299.158447 
	C281.186951,299.241150 285.110199,297.728058 288.950043,294.318481 
	C308.368011,277.076202 327.955688,260.025116 347.462036,242.882187 
	C349.988373,240.661972 352.388245,238.297852 355.841827,235.070389 
	C324.729523,235.070389 295.114746,235.070389 264.500000,235.069473 
M252.406235,316.984314 
	C247.226364,316.984314 242.046494,316.984314 235.569092,316.984314 
	C240.116714,321.055328 243.571121,324.127350 247.000046,327.227600 
	C248.310486,328.412415 249.565842,328.574249 250.943390,327.335022 
	C254.454208,324.176727 257.990173,321.046448 261.800018,317.652008 
	C258.612854,316.439056 255.947021,317.265167 252.406235,316.984314 
z"/>
<path fill="#000000" opacity="1.000000" stroke="none" 
	d="
M177.000000,190.173035 
	C169.339355,190.169601 162.177307,190.081573 155.018631,190.198517 
	C151.422226,190.257278 149.887131,188.769104 149.907272,185.161819 
	C149.992188,169.965240 148.861252,171.962067 162.405212,171.949112 
	C221.688507,171.892410 280.971863,171.914368 340.255219,171.913940 
	C348.176086,171.913879 348.206055,171.930222 348.175720,180.062210 
	C348.134338,191.160629 349.180481,190.173172 337.865723,190.175369 
	C284.410492,190.185776 230.955246,190.175827 177.000000,190.173035 
z"/>
<path fill="#000000" opacity="1.000000" stroke="none" 
	d="
M186.000000,145.127869 
	C175.501526,145.130142 165.500961,145.014221 155.505569,145.190491 
	C151.391281,145.263062 149.835785,143.623627 149.885193,139.589920 
	C150.057983,125.482498 148.742126,126.953865 161.974258,126.946548 
	C221.464996,126.913673 280.955780,126.927879 340.446564,126.941490 
	C348.147705,126.943253 348.144409,126.998825 348.193237,134.830154 
	C348.265656,146.446762 348.480927,145.139038 337.976685,145.140793 
	C287.484467,145.149246 236.992233,145.134109 186.000000,145.127869 
z"/>
<path fill="#000000" opacity="1.000000" stroke="none" 
	d="
M248.999969,100.223778 
	C218.188477,100.220688 187.876999,100.223953 157.565506,100.209053 
	C150.056000,100.205368 149.955109,100.079880 149.929413,92.764336 
	C149.891403,81.944122 149.891418,81.929390 160.828842,81.926086 
	C200.966385,81.913963 241.103943,81.910263 281.241486,81.909119 
	C288.297852,81.908920 288.358246,81.922073 288.306061,89.224449 
	C288.217194,101.660881 289.779022,100.129723 277.479828,100.218826 
	C268.153687,100.286392 258.826630,100.226570 248.999969,100.223778 
z"/>
<path fill="#000000" opacity="1.000000" stroke="none" 
	d="
M313.927307,96.678520 
	C313.999939,79.533867 311.993896,82.179062 328.133423,81.923325 
	C333.279785,81.841774 338.429169,81.964844 343.576202,81.906181 
	C346.660187,81.871025 348.167725,83.191025 348.166809,86.358002 
	C348.161957,103.239182 349.662872,99.901619 335.659607,100.204895 
	C330.016449,100.327103 324.368103,100.196648 318.722260,100.217461 
	C316.438080,100.225883 314.297485,100.108955 313.927307,96.678520 
z"/>
</svg>